<svg xmlns="http://www.w3.org/2000/svg" width="400" height="400"><path d="M0 0 C2.71099379 0.00435532 5.42180043 -0.01092307 8.13275146 -0.02522278 C14.67636153 -0.0481256 21.21772416 -0.0028997 27.76093696 0.06636672 C35.39398222 0.1443136 43.02662128 0.15086599 50.66000332 0.15461726 C64.27739851 0.16351852 77.89378335 0.23305969 91.51074219 0.33886719 C104.70612654 0.4413203 117.90090458 0.50487107 131.09667969 0.5234375 C131.91161545 0.52459129 132.72655122 0.52574509 133.566182 0.52693384 C135.2080588 0.52922839 136.8499356 0.53151683 138.49181242 0.53379915 C139.30184447 0.53492897 140.11187652 0.5360588 140.946455 0.53722286 C142.15856236 0.53888847 142.15856236 0.53888847 143.39515673 0.54058772 C156.0076715 0.55922455 168.62008858 0.60890453 181.23249223 0.663512 C185.03515374 0.6798148 188.83780862 0.69450317 192.6404891 0.70562053 C200.62360557 0.7290022 208.60637435 0.76255728 216.58924316 0.83162957 C219.88745904 0.85998785 223.18534501 0.8802174 226.48368454 0.88752747 C230.06042551 0.89675819 233.63610897 0.93054216 237.21261597 0.97080994 C238.25180329 0.96802613 239.29099062 0.96524232 240.36166847 0.96237415 C247.53327565 1.08146289 251.85769591 2.40008391 257.31689453 7.25024414 C257.77451172 7.79938477 258.23212891 8.34852539 258.70361328 8.91430664 C259.409375 9.7302832 259.409375 9.7302832 260.12939453 10.56274414 C263.84838408 16.38877731 263.65852902 22.30982037 263.58642578 28.96899414 C263.58218094 30.45449265 263.58218094 30.45449265 263.57785034 31.97000122 C263.56669798 35.1182284 263.54160235 38.26616613 263.51611328 41.41430664 C263.5060771 43.55492752 263.49695236 45.69555288 263.48876953 47.83618164 C263.46848048 53.07075659 263.42932202 58.30470941 263.39111328 63.53930664 C272.30111328 63.53930664 281.21111328 63.53930664 290.39111328 63.53930664 C290.39111328 175.07930664 290.39111328 286.61930664 290.39111328 401.53930664 C208.71611328 401.69399414 208.71611328 401.69399414 125.39111328 401.85180664 C99.57957031 401.92008667 99.57957031 401.92008667 73.24658203 401.98974609 C52.27197266 402.0123291 52.27197266 402.0123291 42.46020508 402.01652527 C35.59130323 402.0211931 28.72260408 402.03955546 21.85375977 402.06718445 C13.93335852 402.09899612 6.0131521 402.11348995 -1.90731353 402.10653139 C-5.95964453 402.10351726 -10.01154002 402.10831878 -14.06379128 402.13538229 C-17.72936175 402.1597146 -21.39418882 402.16092477 -25.05979347 402.14381218 C-27.01051903 402.14069167 -28.96123608 402.16224069 -30.91183472 402.1847105 C-38.02854916 402.12412503 -43.21493525 401.45303178 -48.60888672 396.53930664 C-53.08371893 390.80234226 -53.76284503 386.38460539 -53.81420898 379.30419922 C-53.82410858 378.46495407 -53.83400818 377.62570892 -53.84420776 376.7610321 C-53.87581068 373.98532946 -53.90057545 371.20960969 -53.92529297 368.43383789 C-53.94586354 366.50997979 -53.96686004 364.58612621 -53.98826599 362.66227722 C-54.04347604 357.59721528 -54.09289005 352.53211262 -54.14111328 347.46697998 C-54.19133607 342.29899469 -54.24701808 337.13106857 -54.30224609 331.96313477 C-54.40981463 321.82190927 -54.51126254 311.6806324 -54.60888672 301.53930664 C-55.84191528 302.29606689 -55.84191528 302.29606689 -57.09985352 303.06811523 C-60.16324061 304.94683852 -63.22971203 306.82047568 -66.29711914 308.69262695 C-67.62185373 309.50212407 -68.94575878 310.31298042 -70.26879883 311.12524414 C-72.1755438 312.29553665 -74.0852625 313.46083656 -75.99560547 314.62524414 C-76.58226486 314.98677582 -77.16892426 315.3483075 -77.77336121 315.72079468 C-80.97295701 317.66385322 -84.12214746 319.1949721 -87.60888672 320.53930664 C-87.83776151 284.73347655 -88.01397572 248.92777468 -88.11954001 213.12136373 C-88.13204712 208.89438452 -88.14499034 204.66740675 -88.15820312 200.44042969 C-88.16082623 199.59891249 -88.16344933 198.7573953 -88.16615193 197.89037759 C-88.20966872 184.26344479 -88.28851582 170.63693374 -88.38041468 157.01025116 C-88.47392122 143.02860024 -88.52947245 129.04717023 -88.54977167 115.06521946 C-88.5634953 106.43689586 -88.60684006 97.80976425 -88.68805139 89.18180759 C-88.74090134 83.26571762 -88.75689066 77.35024406 -88.74390049 71.43393516 C-88.73749252 68.01967619 -88.74732656 64.60749986 -88.80094147 61.19361115 C-88.8506285 57.48970603 -88.83877262 53.79091971 -88.81143188 50.0868988 C-88.8405603 49.01004127 -88.86968871 47.93318375 -88.89969981 46.82369417 C-88.80946512 42.30864821 -88.69931376 39.63266063 -85.42399001 36.34854519 C-82.88741075 34.54919726 -80.34614993 33.01085742 -77.60888672 31.53930664 C-76.45176633 30.82690842 -75.2966781 30.11118525 -74.14477539 29.39038086 C-72.60140503 28.50116943 -72.60140503 28.50116943 -71.02685547 27.59399414 C-70.44712479 27.25739777 -69.8673941 26.92080139 -69.27009583 26.57400513 C-67.44793465 25.51654077 -65.62255875 24.46482672 -63.79638672 23.41430664 C-62.05689473 22.41191203 -60.31823453 21.40825455 -58.58269584 20.39902884 C-57.34731936 19.68401578 -56.10831902 18.97520504 -54.86479199 18.27446312 C-51.13458599 16.13940934 -47.64032254 13.86552935 -44.20031548 11.28656864 C-29.67371704 0.75017715 -17.57358257 -0.2934787 0 0 Z " fill="#DBAE03" transform="translate(98.60888671875,-1.539306640625)"></path><path d="M0 0 C0.33 0 0.66 0 1 0 C1 14.85 1 29.7 1 45 C9.91 45 18.82 45 28 45 C28 156.54 28 268.08 28 383 C-53.675 383.1546875 -53.675 383.1546875 -137 383.3125 C-162.81154297 383.38078003 -162.81154297 383.38078003 -189.14453125 383.45043945 C-210.11914062 383.47302246 -210.11914062 383.47302246 -219.9309082 383.47721863 C-226.79981005 383.48188646 -233.6685092 383.50024882 -240.53735352 383.52787781 C-248.45775476 383.55968948 -256.37796119 383.57418331 -264.29842681 383.56722475 C-268.35075781 383.56421062 -272.40265331 383.56901214 -276.45490456 383.59607565 C-280.12047504 383.62040796 -283.7853021 383.62161813 -287.45090675 383.60450554 C-289.40163231 383.60138503 -291.35234936 383.62293404 -293.302948 383.64540386 C-300.41966244 383.58481839 -305.60604853 382.91372513 -311 378 C-315.39479411 372.36564857 -316.19671994 367.79381223 -316.52612305 360.83520508 C-316.56803268 360.00215347 -316.60994232 359.16910187 -316.65312195 358.31080627 C-317.0219797 350.5975691 -317.24893277 342.88102318 -317.42924786 335.16127491 C-317.55333556 329.98136687 -317.72587018 324.81335646 -318.01635742 319.63989258 C-319.91010807 285.06986958 -319.91010807 285.06986958 -313.39312744 277.51312256 C-306.8329969 271.23999695 -298.48833465 267.85834998 -290 265 C-289.34 264.67 -288.68 264.34 -288 264 C-286.4209409 263.90639092 -284.83793277 263.87626502 -283.25610161 263.87695217 C-282.24890159 263.87496112 -281.24170156 263.87297007 -280.20398033 263.87091869 C-279.0892129 263.87383153 -277.97444547 263.87674437 -276.82589722 263.87974548 C-275.05923932 263.87846385 -275.05923932 263.87846385 -273.25689137 263.87715632 C-269.97774223 263.87578965 -266.69863222 263.8789314 -263.41948771 263.88393438 C-259.88711085 263.88823999 -256.35473592 263.88679238 -252.82235718 263.8860321 C-246.69893839 263.88550694 -240.57553022 263.88865296 -234.45211411 263.89426994 C-225.59860761 263.90238595 -216.74510627 263.90500027 -207.89159645 263.90625793 C-193.52847675 263.90844829 -179.16536272 263.91510795 -164.80224609 263.92456055 C-150.84716825 263.93373508 -136.89209196 263.94080425 -122.93701172 263.94506836 C-121.6342544 263.94547036 -121.6342544 263.94547036 -120.30517876 263.94588047 C-113.51322336 263.94795981 -106.72126792 263.94991676 -99.92931247 263.95183504 C-66.61953644 263.96127417 -33.3097746 263.98139119 0 264 C0 176.88 0 89.76 0 0 Z " fill="#705A01" transform="translate(361,17)"></path><path d="M0 0 C0.50401691 35.57571961 0.8914389 71.15081133 1.12343725 106.72936867 C1.15095142 110.93359862 1.17942664 115.13782155 1.20849609 119.34204102 C1.21715234 120.59747009 1.21715234 120.59747009 1.22598346 121.87826136 C1.32160779 135.41471437 1.49500109 148.94910322 1.69736151 162.4843333 C1.90340535 176.38228961 2.02535508 190.2791683 2.06994689 204.17858917 C2.10007746 212.75057128 2.19504273 221.31672014 2.37416227 229.88690481 C2.49085126 235.77130871 2.52552307 241.65271776 2.4970303 247.53819343 C2.4829737 250.93431424 2.51586713 254.31216312 2.62252045 257.70783806 C3.2143512 277.52821541 3.2143512 277.52821541 -2.15916395 283.33208871 C-7.45165674 287.45652989 -13.21875972 290.23218173 -19.37758517 292.82246268 C-23.06448476 294.47798332 -26.14725556 296.59665294 -29.4375 298.9375 C-35.93220526 303.37947042 -42.60029343 307.52031678 -49.3125 311.625 C-50.334646 312.25398193 -51.35679199 312.88296387 -52.40991211 313.53100586 C-53.36389893 314.11116455 -54.31788574 314.69132324 -55.30078125 315.2890625 C-56.58722534 316.07337646 -56.58722534 316.07337646 -57.8996582 316.87353516 C-60 318 -60 318 -62 318 C-62.22887479 282.19416991 -62.405089 246.38846804 -62.51065329 210.58205708 C-62.5231604 206.35507788 -62.53610362 202.12810011 -62.54931641 197.90112305 C-62.55193951 197.05960585 -62.55456261 196.21808866 -62.55726521 195.35107095 C-62.600782 181.72413815 -62.67962911 168.09762709 -62.77152796 154.47094452 C-62.8650345 140.4892936 -62.92058573 126.50786359 -62.94088495 112.52591282 C-62.95460858 103.89758922 -62.99795334 95.27045761 -63.07916467 86.64250094 C-63.13201462 80.72641098 -63.14800394 74.81093742 -63.13501377 68.89462852 C-63.1286058 65.48036955 -63.13843984 62.06819322 -63.19205475 58.6543045 C-63.24174179 54.95039939 -63.22988591 51.25161306 -63.20254517 47.54759216 C-63.23167358 46.47073463 -63.26080199 45.3938771 -63.29081309 44.28438753 C-63.2005974 39.77029227 -63.09040144 37.09360838 -59.81621909 33.80979645 C-57.27929129 32.01002884 -54.73778695 30.47170404 -52 29 C-50.83241198 28.28213701 -49.66677282 27.56108259 -48.50415039 26.83520508 C-47.46250732 26.23603271 -46.42086426 25.63686035 -45.34765625 25.01953125 C-44.76893768 24.68414337 -44.19021912 24.34875549 -43.59396362 24.00320435 C-41.75221847 22.93599927 -39.9073829 21.87426956 -38.0625 20.8125 C-28.42969313 15.24200661 -18.90011616 9.57604494 -9.63500977 3.40356445 C-8.93947998 2.94941162 -8.2439502 2.49525879 -7.52734375 2.02734375 C-6.64163696 1.43554321 -6.64163696 1.43554321 -5.73803711 0.83178711 C-4 -0 -4 -0 0 0 Z " fill="#E9CC5C" transform="translate(73,1)"></path><path d="M0 0 C26.07 0 52.14 0 79 0 C79 9.24 79 18.48 79 28 C72.4 28 65.8 28 59 28 C59 61 59 94 59 128 C65.6 128 72.2 128 79 128 C79 137.24 79 146.48 79 156 C52.93 156 26.86 156 0 156 C0 146.76 0 137.52 0 128 C6.6 128 13.2 128 20 128 C20 95 20 62 20 28 C13.4 28 6.8 28 0 28 C0 18.76 0 9.52 0 0 Z " fill="#FEFEFC" transform="translate(178,63)"></path><path d="M0 0 C5.15473787 3.00447579 9.02964169 7.57659089 11.05078125 13.1953125 C11.64051037 18.0156584 11.60901827 22.78215401 11.55078125 27.6328125 C11.56625 28.91736328 11.58171875 30.20191406 11.59765625 31.52539062 C11.56066357 40.50074059 10.78999247 46.45610128 4.23828125 53.0078125 C-1.97755004 57.27357907 -6.96590265 58.73821946 -14.38671875 58.6328125 C-15.51267456 58.62036499 -15.51267456 58.62036499 -16.66137695 58.60766602 C-23.33389498 58.40339784 -27.74048298 57.18675239 -32.6796875 52.58203125 C-39.53462491 45.23861849 -39.28736013 37.35281601 -39.26171875 27.7578125 C-39.27783203 26.55576172 -39.29394531 25.35371094 -39.31054688 24.11523438 C-39.31491943 16.18779147 -38.43241793 11.36708712 -34.38671875 4.5703125 C-24.98066606 -4.59455935 -11.67698786 -5.46582411 0 0 Z " fill="#FCFBF9" transform="translate(284.94921875,310.8046875)"></path><path d="M0 0 C32.35483871 0 32.35483871 0 40 4.9375 C44.05852284 9.12285168 44.3173065 12.59411141 44.375 18.375 C44.40335938 19.66148437 44.43171875 20.94796875 44.4609375 22.2734375 C43.92263716 26.62545886 42.85463216 28.69720033 40 32 C37.25 33.375 37.25 33.375 35 34 C36.23688835 36.29965163 37.48842071 38.58894675 38.75 40.875 C39.09804687 41.52597656 39.44609375 42.17695313 39.8046875 42.84765625 C41.73868444 46.32168779 43.10007535 48.7527268 47 50 C47.02689216 51.47906892 47.04634621 52.95827483 47.0625 54.4375 C47.07410156 55.26121094 47.08570313 56.08492188 47.09765625 56.93359375 C47 59 47 59 46 60 C43.92578125 60.2734375 43.92578125 60.2734375 41.3125 60.375 C40.46300781 60.42398438 39.61351562 60.47296875 38.73828125 60.5234375 C34.88204306 59.78629639 32.5058163 57.9062732 30 55 C28.04377908 51.66501498 26.61221742 48.11052067 25.16601562 44.53125 C24.85470703 43.83515625 24.54339844 43.1390625 24.22265625 42.421875 C23.83219116 41.47199707 23.83219116 41.47199707 23.43383789 40.50292969 C21.52921486 38.19625689 21.52921486 38.19625689 15 38 C15 44.93 15 51.86 15 59 C10.05 59 5.1 59 0 59 C0 39.53 0 20.06 0 0 Z " fill="#FBFAF8" transform="translate(192,309)"></path><path d="M0 0 C27 0 27 0 38 4 C43.1798286 9.1798286 44.16547709 12.06555255 44.25 19.25 C44.27578125 20.55453125 44.3015625 21.8590625 44.328125 23.203125 C43.84762156 28.76323629 42.1467132 31.87876931 38.1875 35.75 C30.80421195 40.96173274 23.74639337 40.16502629 15 40 C15 46.27 15 52.54 15 59 C10.05 59 5.1 59 0 59 C0 39.53 0 20.06 0 0 Z " fill="#FBFBF9" transform="translate(140,309)"></path><path d="M0 0 C2.87029869 1.79393668 4.49131638 2.98263276 6 6 C6.32626833 10.5979055 6.32458885 15.20446225 6.375 19.8125 C6.41238281 21.09705078 6.44976562 22.38160156 6.48828125 23.70507812 C6.49988281 24.94322266 6.51148438 26.18136719 6.5234375 27.45703125 C6.54325684 28.59116455 6.56307617 29.72529785 6.58349609 30.89379883 C5.8216207 34.94958987 4.12479479 36.40404833 1 39 C-2.10048928 40.55024464 -4.57894218 40.28992015 -8 40 C-12.05327013 37.56803792 -13.54571454 35.41585628 -15 31 C-15.4281147 27.21604162 -15.37020665 23.43092098 -15.375 19.625 C-15.39949219 18.60921875 -15.42398437 17.5934375 -15.44921875 16.546875 C-15.47416076 10.1450933 -14.84404075 6.1873115 -11 1 C-7.54260443 -0.72869779 -3.78024432 -0.48966895 0 0 Z " fill="#725C06" transform="translate(275,319)"></path><path d="M0 0 C0.99 0.495 0.99 0.495 2 1 C2.33 92.41 2.66 183.82 3 278 C3.66 278 4.32 278 5 278 C5 278.66 5 279.32 5 280 C3.35 280.66 1.7 281.32 0 282 C0 188.94 0 95.88 0 0 Z " fill="#F2E2A4" transform="translate(11,37)"></path><path d="M0 0 C10.30769231 0 10.30769231 0 14 3 C15.73705051 6.47410101 15.44525447 10.20184448 15 14 C13.6875 16.5625 13.6875 16.5625 11 18 C7.26589068 18.31699633 3.76240217 18.17916201 0 18 C0 12.06 0 6.12 0 0 Z " fill="#735D07" transform="translate(207,319)"></path><path d="M0 0 C1.5675 -0.061875 3.135 -0.12375 4.75 -0.1875 C6.07257813 -0.23970703 6.07257813 -0.23970703 7.421875 -0.29296875 C10.58398225 0.06636162 11.85361773 0.64638082 14 3 C14.49609375 5.8125 14.49609375 5.8125 14.4375 9 C14.43621094 10.051875 14.43492187 11.10375 14.43359375 12.1875 C14 15 14 15 12.66015625 16.8125 C8.44739278 19.82586493 5.53809427 19 0 19 C0 12.73 0 6.46 0 0 Z " fill="#705A04" transform="translate(155,320)"></path><path d="M0 0 C2.97 0 5.94 0 9 0 C9.33 0.66 9.66 1.32 10 2 C7.36 2 4.72 2 2 2 C2 6.95 2 11.9 2 17 C3.98 17 5.96 17 8 17 C8 17.33 8 17.66 8 18 C5.36 18 2.72 18 0 18 C0 12.06 0 6.12 0 0 Z " fill="#7D691F" transform="translate(207,319)"></path></svg>